<?xml version="1.0" encoding="utf-8"?>
<!-- Generator: Adobe Illustrator 28.3.0, SVG Export Plug-In . SVG Version: 6.00 Build 0)  -->
<svg version="1.1" id="Calque_1" xmlns="http://www.w3.org/2000/svg" xmlns:xlink="http://www.w3.org/1999/xlink" x="0px" y="0px"
	 viewBox="0 0 595.3 841.9" style="enable-background:new 0 0 595.3 841.9;" xml:space="preserve">
<style type="text/css">
	.st0{fill:#FFFFFF;}
</style>
<g>
	<g>
		<path class="st0" d="M222,209.4c25,0,50,0,74.9,0c0,25,0,50,0,74.9c-25,0-50,0-74.9,0C222,259.3,222,234.3,222,209.4z M279.4,265
			c2.4-0.6,4.6-1.2,6.9-1.7c0.5-0.1,0.6-0.3,0.7-0.8c1.4-5.8,2.1-11.8,2.3-17.7c0.2-7.9-0.5-15.7-2.3-23.4c-0.1-0.5-0.3-0.7-0.8-0.8
			c-6.8-1.9-13.8-3-20.9-3.4c-5.5-0.3-11.1-0.2-16.6,0.4c-5.5,0.6-10.9,1.6-16.2,3c-0.4,0.1-0.6,0.3-0.7,0.7
			c-1.4,6.1-2.2,12.2-2.3,18.4c-0.2,7.7,0.6,15.3,2.3,22.8c0.1,0.4,0.3,0.7,0.8,0.8c5.8,1.6,11.7,2.7,17.8,3.1
			c4.4,0.3,8.8,0.2,13.2,0.3c0.5,0,0.9,0.1,1.2,0.5c3,3.1,6.1,6.1,9.2,9.2c0.2,0.2,0.4,0.4,0.6,0.4c1.6,0,3.1,0,4.8,0
			C279.4,272.8,279.4,268.9,279.4,265z"/>
		<path d="M279.4,265c0,3.9,0,7.9,0,11.9c-1.6,0-3.2,0-4.8,0c-0.2,0-0.5-0.2-0.6-0.4c-3.1-3.1-6.1-6.1-9.2-9.2
			c-0.4-0.4-0.7-0.5-1.2-0.5c-4.4-0.1-8.8,0-13.2-0.3c-6-0.4-11.9-1.5-17.8-3.1c-0.5-0.1-0.7-0.4-0.8-0.8
			c-1.7-7.5-2.5-15.1-2.3-22.8c0.1-6.2,0.9-12.3,2.3-18.4c0.1-0.4,0.2-0.6,0.7-0.7c5.3-1.5,10.7-2.5,16.2-3
			c5.5-0.6,11.1-0.7,16.6-0.4c7.1,0.4,14,1.5,20.9,3.4c0.5,0.1,0.7,0.3,0.8,0.8c1.8,7.7,2.5,15.5,2.3,23.4c-0.2,6-0.9,11.9-2.3,17.7
			c-0.1,0.4-0.3,0.7-0.7,0.8C284,263.8,281.7,264.4,279.4,265z M274.3,260.7c0.3-0.1,0.6-0.1,0.8-0.2c2.3-0.4,4.6-0.9,6.9-1.3
			c0.5-0.1,0.6-0.3,0.7-0.7c0.8-4.3,1.4-8.6,1.5-12.9c0.1-3.2,0.1-6.4-0.2-9.6c-0.3-3.6-0.9-7.1-1.3-10.6c-0.1-0.4-0.3-0.6-0.7-0.7
			c-5.1-1.2-10.3-2-15.5-2.4c-5.1-0.3-10.1-0.3-15.2,0.1c-4.9,0.4-9.7,1.2-14.5,2.3c-0.5,0.1-0.6,0.3-0.7,0.7
			c-0.8,4.3-1.4,8.6-1.5,12.9c0,3.8,0,7.6,0.3,11.4c0.2,2.9,0.8,5.9,1.2,8.8c0.1,0.4,0.2,0.6,0.6,0.7c4.7,1.1,9.5,1.9,14.4,2.3
			c4.8,0.4,9.7,0.4,14.5,0.1c0.5,0,0.9,0.1,1.2,0.5c2.3,2.3,4.6,4.6,6.9,6.9c0.2,0.2,0.4,0.3,0.7,0.6
			C274.3,266.6,274.3,263.6,274.3,260.7z"/>
		<path class="st0" d="M274.3,260.7c0,2.9,0,5.8,0,8.9c-0.3-0.3-0.5-0.4-0.7-0.6c-2.3-2.3-4.6-4.6-6.9-6.9c-0.3-0.4-0.7-0.5-1.2-0.5
			c-4.8,0.3-9.7,0.3-14.5-0.1c-4.8-0.4-9.6-1.2-14.4-2.3c-0.4-0.1-0.5-0.3-0.6-0.7c-0.4-2.9-1-5.9-1.2-8.8
			c-0.3-3.8-0.3-7.6-0.3-11.4c0-4.4,0.7-8.7,1.5-12.9c0.1-0.4,0.2-0.6,0.7-0.7c4.8-1.1,9.6-1.9,14.5-2.3c5.1-0.4,10.1-0.4,15.2-0.1
			c5.2,0.4,10.4,1.1,15.5,2.4c0.4,0.1,0.7,0.3,0.7,0.7c0.5,3.5,1.1,7.1,1.3,10.6c0.2,3.2,0.2,6.4,0.2,9.6c-0.1,4.4-0.7,8.7-1.5,12.9
			c-0.1,0.4-0.3,0.7-0.7,0.7c-2.3,0.4-4.6,0.9-6.9,1.3C274.9,260.6,274.6,260.6,274.3,260.7z M256.9,233.3
			c-8.5,2-13.1,7.4-13.8,16.2c-1.2,0-2.4,0-3.6,0c0,1.3,0,2.5,0,3.7c0.8,0.1,1.6,0.3,2.4,0.4c2.8,0.5,5.7,0.9,8.6,0.9
			c6.6-0.1,13.2,0,19.9,0c0.9,0,1.8-0.1,2.8-0.2c2.1-0.3,4.2-0.7,6.2-1c0-1.3,0-2.5,0-3.8c-1.3,0-2.5,0-3.6,0
			c-0.1-0.7-0.1-1.3-0.2-2c-0.8-7-6.1-12.6-13-13.9c-0.4-0.1-0.6-0.2-0.6-0.6c0-0.5,0-1.1,0-1.6c0-0.4,0.1-0.6,0.5-0.7
			c0.9-0.3,1.9-0.6,2.8-0.9c0.2-0.1,0.4-0.3,0.5-0.4c0-0.7,0-1.4,0-2.2c-4.2,0-8.3,0-12.5,0c0,0.7,0,1.3,0,1.9
			c0,0.5,0.2,0.6,0.6,0.8c1.1,0.3,2.1,0.7,3.2,1.1C256.9,231.6,256.9,232.5,256.9,233.3z"/>
		<path d="M256.9,233.3c0-0.8,0-1.6,0-2.5c-1-0.3-2.1-0.7-3.2-1.1c-0.4-0.1-0.6-0.3-0.6-0.8c0-0.6,0-1.3,0-1.9c4.2,0,8.3,0,12.5,0
			c0,0.8,0,1.5,0,2.2c0,0.2-0.3,0.4-0.5,0.4c-0.9,0.3-1.9,0.6-2.8,0.9c-0.4,0.1-0.5,0.3-0.5,0.7c0,0.5,0,1.1,0,1.6
			c0,0.4,0.2,0.6,0.6,0.6c6.9,1.3,12.2,7,13,13.9c0.1,0.6,0.1,1.3,0.2,2c1.2,0,2.4,0,3.6,0c0,1.3,0,2.5,0,3.8
			c-2.1,0.3-4.2,0.7-6.2,1c-0.9,0.1-1.8,0.2-2.8,0.2c-6.6,0-13.2-0.1-19.9,0c-2.9,0-5.8-0.4-8.6-0.9c-0.8-0.1-1.6-0.3-2.4-0.4
			c0-1.2,0-2.4,0-3.7c1.2,0,2.4,0,3.6,0C243.8,240.7,248.4,235.3,256.9,233.3z M248.3,249.3c7.4,0,14.9,0,22.3,0
			c0.2-5-3.9-11.1-11.1-11.1C252.5,238.2,248.1,244.1,248.3,249.3z"/>
		<path class="st0" d="M248.3,249.3c-0.2-5.3,4.2-11.2,11.2-11.1c7.2,0,11.3,6.1,11.1,11.1C263.1,249.3,255.7,249.3,248.3,249.3z"/>
	</g>
</g>
</svg>
